<svg width="249" height="41" viewBox="0 0 249 41" fill="none" xmlns="http://www.w3.org/2000/svg">
<path d="M9.44886 39.108V14.9716H15.5511V39.108H9.44886ZM0.431818 30.0909V23.9886H24.5682V30.0909H0.431818Z" fill="#06B6D4"/>
<path d="M36.0511 38H28.142L40.1932 3.09091H49.7045L61.7386 38H53.8295L45.0852 11.0682H44.8125L36.0511 38ZM35.5568 24.2784H54.2386V30.0398H35.5568V24.2784ZM77.7938 26.8523V11.8182H85.0551V38H78.0835V33.2443H77.8108C77.2199 34.7784 76.2369 36.0114 74.8619 36.9432C73.4983 37.875 71.8335 38.3409 69.8676 38.3409C68.1176 38.3409 66.5778 37.9432 65.2483 37.1477C63.9188 36.3523 62.879 35.2216 62.129 33.7557C61.3903 32.2898 61.0153 30.5341 61.004 28.4886V11.8182H68.2653V27.1932C68.2767 28.7386 68.6915 29.9602 69.5097 30.858C70.3278 31.7557 71.4244 32.2045 72.7994 32.2045C73.6744 32.2045 74.4926 32.0057 75.254 31.608C76.0153 31.1989 76.629 30.5966 77.0949 29.8011C77.5722 29.0057 77.8051 28.0227 77.7938 26.8523ZM99.9895 11.8182V17.2727H84.2224V11.8182H99.9895ZM87.802 5.54545H95.0634V29.9545C95.0634 30.625 95.1656 31.1477 95.3702 31.5227C95.5747 31.8864 95.8588 32.142 96.2224 32.2898C96.5974 32.4375 97.0293 32.5114 97.5179 32.5114C97.8588 32.5114 98.1997 32.483 98.5406 32.4261C98.8815 32.358 99.1429 32.3068 99.3247 32.2727L100.467 37.6761C100.103 37.7898 99.5918 37.9205 98.9327 38.0682C98.2736 38.2273 97.4724 38.3239 96.5293 38.358C94.7793 38.4261 93.2452 38.1932 91.927 37.6591C90.6202 37.125 89.6031 36.2955 88.8759 35.1705C88.1486 34.0455 87.7906 32.625 87.802 30.9091V5.54545ZM111.468 38.5114C108.82 38.5114 106.53 37.9489 104.599 36.8239C102.678 35.6875 101.195 34.108 100.15 32.0852C99.1043 30.0511 98.5815 27.6932 98.5815 25.0114C98.5815 22.3068 99.1043 19.9432 100.15 17.9205C101.195 15.8864 102.678 14.3068 104.599 13.1818C106.53 12.0455 108.82 11.4773 111.468 11.4773C114.116 11.4773 116.4 12.0455 118.32 13.1818C120.252 14.3068 121.741 15.8864 122.786 17.9205C123.832 19.9432 124.354 22.3068 124.354 25.0114C124.354 27.6932 123.832 30.0511 122.786 32.0852C121.741 34.108 120.252 35.6875 118.32 36.8239C116.4 37.9489 114.116 38.5114 111.468 38.5114ZM111.502 32.8864C112.707 32.8864 113.712 32.5455 114.519 31.8636C115.326 31.1705 115.934 30.2273 116.343 29.0341C116.763 27.8409 116.974 26.483 116.974 24.9602C116.974 23.4375 116.763 22.0795 116.343 20.8864C115.934 19.6932 115.326 18.75 114.519 18.0568C113.712 17.3636 112.707 17.017 111.502 17.017C110.286 17.017 109.263 17.3636 108.434 18.0568C107.616 18.75 106.996 19.6932 106.576 20.8864C106.167 22.0795 105.962 23.4375 105.962 24.9602C105.962 26.483 106.167 27.8409 106.576 29.0341C106.996 30.2273 107.616 31.1705 108.434 31.8636C109.263 32.5455 110.286 32.8864 111.502 32.8864ZM131.537 22.8636V38H124.276V11.8182H131.196V16.4375H131.503C132.083 14.9148 133.054 13.7102 134.418 12.8239C135.782 11.9261 137.435 11.4773 139.378 11.4773C141.196 11.4773 142.782 11.875 144.134 12.6705C145.486 13.4659 146.537 14.6023 147.287 16.0795C148.037 17.5455 148.412 19.2955 148.412 21.3295V38H141.151V22.625C141.162 21.0227 140.753 19.7727 139.924 18.875C139.094 17.9659 137.952 17.5114 136.497 17.5114C135.52 17.5114 134.657 17.7216 133.907 18.142C133.168 18.5625 132.588 19.1761 132.168 19.983C131.759 20.7784 131.549 21.7386 131.537 22.8636ZM161.165 38.5114C158.517 38.5114 156.227 37.9489 154.295 36.8239C152.375 35.6875 150.892 34.108 149.847 32.0852C148.801 30.0511 148.278 27.6932 148.278 25.0114C148.278 22.3068 148.801 19.9432 149.847 17.9205C150.892 15.8864 152.375 14.3068 154.295 13.1818C156.227 12.0455 158.517 11.4773 161.165 11.4773C163.812 11.4773 166.097 12.0455 168.017 13.1818C169.949 14.3068 171.438 15.8864 172.483 17.9205C173.528 19.9432 174.051 22.3068 174.051 25.0114C174.051 27.6932 173.528 30.0511 172.483 32.0852C171.438 34.108 169.949 35.6875 168.017 36.8239C166.097 37.9489 163.812 38.5114 161.165 38.5114ZM161.199 32.8864C162.403 32.8864 163.409 32.5455 164.216 31.8636C165.023 31.1705 165.631 30.2273 166.04 29.0341C166.46 27.8409 166.67 26.483 166.67 24.9602C166.67 23.4375 166.46 22.0795 166.04 20.8864C165.631 19.6932 165.023 18.75 164.216 18.0568C163.409 17.3636 162.403 17.017 161.199 17.017C159.983 17.017 158.96 17.3636 158.131 18.0568C157.313 18.75 156.693 19.6932 156.273 20.8864C155.864 22.0795 155.659 23.4375 155.659 24.9602C155.659 26.483 155.864 27.8409 156.273 29.0341C156.693 30.2273 157.313 31.1705 158.131 31.8636C158.96 32.5455 159.983 32.8864 161.199 32.8864ZM173.973 38V11.8182H180.893V16.4375H181.2C181.745 14.9034 182.655 13.6932 183.927 12.8068C185.2 11.9205 186.723 11.4773 188.495 11.4773C190.291 11.4773 191.819 11.9261 193.081 12.8239C194.342 13.7102 195.183 14.9148 195.603 16.4375H195.876C196.41 14.9375 197.376 13.7386 198.774 12.8409C200.183 11.9318 201.848 11.4773 203.768 11.4773C206.211 11.4773 208.194 12.2557 209.717 13.8125C211.251 15.358 212.018 17.5511 212.018 20.392V38H204.774V21.8239C204.774 20.3693 204.387 19.2784 203.615 18.5511C202.842 17.8239 201.876 17.4602 200.717 17.4602C199.399 17.4602 198.37 17.8807 197.632 18.7216C196.893 19.5511 196.524 20.6477 196.524 22.0114V38H189.484V21.6705C189.484 20.3864 189.115 19.3636 188.376 18.6023C187.649 17.8409 186.689 17.4602 185.495 17.4602C184.689 17.4602 183.961 17.6648 183.314 18.0739C182.677 18.4716 182.172 19.0341 181.797 19.7614C181.422 20.4773 181.234 21.3182 181.234 22.2841V38H173.973ZM212.954 38V11.8182H220.215V38H212.954ZM216.602 8.44318C215.522 8.44318 214.596 8.08523 213.823 7.36932C213.062 6.64204 212.681 5.77273 212.681 4.76136C212.681 3.76136 213.062 2.90341 213.823 2.1875C214.596 1.46023 215.522 1.09659 216.602 1.09659C217.681 1.09659 218.602 1.46023 219.363 2.1875C220.136 2.90341 220.522 3.76136 220.522 4.76136C220.522 5.77273 220.136 6.64204 219.363 7.36932C218.602 8.08523 217.681 8.44318 216.602 8.44318ZM228.698 38.4943C227.028 38.4943 225.539 38.2045 224.232 37.625C222.925 37.0341 221.891 36.1648 221.13 35.017C220.38 33.858 220.005 32.4148 220.005 30.6875C220.005 29.233 220.272 28.0114 220.806 27.0227C221.34 26.0341 222.067 25.2386 222.988 24.6364C223.908 24.0341 224.954 23.5795 226.124 23.2727C227.306 22.9659 228.545 22.75 229.84 22.625C231.363 22.4659 232.59 22.3182 233.522 22.1818C234.454 22.0341 235.13 21.8182 235.55 21.5341C235.971 21.25 236.181 20.8295 236.181 20.2727V20.1705C236.181 19.0909 235.84 18.2557 235.158 17.6648C234.488 17.0739 233.533 16.7784 232.295 16.7784C230.988 16.7784 229.948 17.0682 229.175 17.6477C228.403 18.2159 227.891 18.9318 227.641 19.7955L220.925 19.25C221.266 17.6591 221.937 16.2841 222.937 15.125C223.937 13.9545 225.226 13.0568 226.806 12.4318C228.397 11.7955 230.238 11.4773 232.329 11.4773C233.783 11.4773 235.175 11.6477 236.505 11.9886C237.846 12.3295 239.033 12.858 240.067 13.5739C241.113 14.2898 241.937 15.2102 242.539 16.3352C243.141 17.4489 243.442 18.7841 243.442 20.3409V38H236.556V34.3693H236.351C235.931 35.1875 235.368 35.9091 234.664 36.5341C233.959 37.1477 233.113 37.6307 232.124 37.983C231.136 38.3239 229.993 38.4943 228.698 38.4943ZM230.778 33.483C231.846 33.483 232.789 33.2727 233.607 32.8523C234.425 32.4205 235.067 31.8409 235.533 31.1136C235.999 30.3864 236.232 29.5625 236.232 28.642V25.8636C236.005 26.0114 235.692 26.1477 235.295 26.2727C234.908 26.3864 234.471 26.4943 233.982 26.5966C233.493 26.6875 233.005 26.7727 232.516 26.8523C232.028 26.9205 231.584 26.983 231.187 27.0398C230.334 27.1648 229.59 27.3636 228.954 27.6364C228.317 27.9091 227.823 28.2784 227.471 28.7443C227.118 29.1989 226.942 29.767 226.942 30.4489C226.942 31.4375 227.3 32.1932 228.016 32.7159C228.743 33.2273 229.664 33.483 230.778 33.483Z" fill="#09090B"/>
</svg>
